<svg xmlns="http://www.w3.org/2000/svg" width="500" height="500" viewBox="0 0 500 500"><g transform="translate(112,327)translate(138,33)rotate(0)translate(-138,-33)" opacity="1"><path transform="translate(6,0)rotate(0)" d="M28.25 40.55L28.25 40.55L28.25 40.55Q28.79 40.55 29.19 40.97L29.19 40.97L31.82 43.82L31.82 43.82Q29.64 46.52 26.45 47.96L26.45 47.96L26.45 47.96Q23.27 49.40 18.81 49.40L18.81 49.40L18.81 49.40Q14.82 49.40 11.63 48.03L11.63 48.03L11.63 48.03Q8.45 46.67 6.19 44.24L6.19 44.24L6.19 44.24Q3.94 41.81 2.74 38.44L2.74 38.44L2.74 38.44Q1.54 35.07 1.54 31.09L1.54 31.09L1.54 31.09Q1.54 27.05 2.87 23.69L2.87 23.69L2.87 23.69Q4.21 20.33 6.64 17.90L6.64 17.90L6.64 17.90Q9.07 15.47 12.45 14.12L12.45 14.12L12.45 14.12Q15.83 12.77 19.92 12.77L19.92 12.77L19.92 12.77Q23.91 12.77 26.90 14.05L26.90 14.05L26.90 14.05Q29.88 15.33 32.01 17.43L32.01 17.43L29.78 20.53L29.78 20.53Q29.59 20.83 29.28 21.05L29.28 21.05L29.28 21.05Q28.97 21.27 28.42 21.27L28.42 21.27L28.42 21.27Q27.85 21.27 27.26 20.83L27.26 20.83L27.26 20.83Q26.66 20.38 25.74 19.86L25.74 19.86L25.74 19.86Q24.83 19.34 23.43 18.89L23.43 18.89L23.43 18.89Q22.03 18.45 19.87 18.45L19.87 18.45L19.87 18.45Q17.34 18.45 15.23 19.33L15.23 19.33L15.23 19.33Q13.11 20.21 11.58 21.84L11.58 21.84L11.58 21.84Q10.06 23.48 9.21 25.82L9.21 25.82L9.21 25.82Q8.35 28.16 8.35 31.09L8.35 31.09L8.35 31.09Q8.35 34.11 9.21 36.46L9.21 36.46L9.21 36.46Q10.06 38.82 11.52 40.43L11.52 40.43L11.52 40.43Q12.98 42.04 14.97 42.89L14.97 42.89L14.97 42.89Q16.95 43.75 19.23 43.75L19.23 43.75L19.23 43.75Q20.59 43.75 21.69 43.60L21.69 43.60L21.69 43.60Q22.80 43.45 23.73 43.13L23.73 43.13L23.73 43.13Q24.65 42.81 25.48 42.30L25.48 42.30L25.48 42.30Q26.31 41.79 27.13 41.05L27.13 41.05L27.13 41.05Q27.38 40.82 27.65 40.69L27.65 40.69L27.65 40.69Q27.93 40.55 28.25 40.55ZM54.26 13.17L68.34 49L63.19 49L63.19 49Q62.32 49 61.76 48.57L61.76 48.57L61.76 48.57Q61.20 48.13 60.96 47.49L60.96 47.49L58.28 40.18L43.44 40.18L40.76 47.49L40.76 47.49Q40.56 48.06 39.98 48.53L39.98 48.53L39.98 48.53Q39.40 49 38.56 49L38.56 49L33.38 49L47.45 13.17L54.26 13.17ZM49.51 23.60L45.15 35.47L56.57 35.47L52.21 23.55L52.21 23.55Q51.91 22.76 51.55 21.68L51.55 21.68L51.55 21.68Q51.19 20.60 50.85 19.34L50.85 19.34L50.85 19.34Q50.50 20.60 50.16 21.69L50.16 21.69L50.16 21.69Q49.83 22.78 49.51 23.60L49.51 23.60ZM83.92 36.39L78.92 36.39L78.92 49L72.25 49L72.25 13.17L83.92 13.17L83.92 13.17Q87.52 13.17 90.14 14.01L90.14 14.01L90.14 14.01Q92.77 14.86 94.48 16.37L94.48 16.37L94.48 16.37Q96.19 17.88 97.01 19.98L97.01 19.98L97.01 19.98Q97.83 22.09 97.83 24.59L97.83 24.59L97.83 24.59Q97.83 27.19 96.96 29.36L96.96 29.36L96.96 29.36Q96.09 31.53 94.36 33.09L94.36 33.09L94.36 33.09Q92.62 34.65 90.02 35.52L90.02 35.52L90.02 35.52Q87.42 36.39 83.92 36.39L83.92 36.39ZM78.92 18.32L78.92 31.18L83.92 31.18L83.92 31.18Q85.76 31.18 87.12 30.73L87.12 30.73L87.12 30.73Q88.48 30.27 89.38 29.41L89.38 29.41L89.38 29.41Q90.27 28.56 90.71 27.33L90.71 27.33L90.71 27.33Q91.16 26.10 91.16 24.59L91.16 24.59L91.16 24.59Q91.16 23.16 90.71 21.99L90.71 21.99L90.71 21.99Q90.27 20.83 89.38 20.01L89.38 20.01L89.38 20.01Q88.48 19.19 87.12 18.76L87.12 18.76L87.12 18.76Q85.76 18.32 83.92 18.32L83.92 18.32L78.92 18.32ZM114.90 36.39L109.89 36.39L109.89 49L103.23 49L103.23 13.17L114.90 13.17L114.90 13.17Q118.49 13.17 121.12 14.01L121.12 14.01L121.12 14.01Q123.74 14.86 125.45 16.37L125.45 16.37L125.45 16.37Q127.16 17.88 127.98 19.98L127.98 19.98L127.98 19.98Q128.80 22.09 128.80 24.59L128.80 24.59L128.80 24.59Q128.80 27.19 127.93 29.36L127.93 29.36L127.93 29.36Q127.06 31.53 125.33 33.09L125.33 33.09L125.33 33.09Q123.60 34.65 120.99 35.52L120.99 35.52L120.99 35.52Q118.39 36.39 114.90 36.39L114.90 36.39ZM109.89 18.32L109.89 31.18L114.90 31.18L114.90 31.18Q116.73 31.18 118.09 30.73L118.09 30.73L118.09 30.73Q119.46 30.27 120.35 29.41L120.35 29.41L120.35 29.41Q121.24 28.56 121.69 27.33L121.69 27.33L121.69 27.33Q122.13 26.10 122.13 24.59L122.13 24.59L122.13 24.59Q122.13 23.16 121.69 21.99L121.69 21.99L121.69 21.99Q121.24 20.83 120.35 20.01L120.35 20.01L120.35 20.01Q119.46 19.19 118.09 18.76L118.09 18.76L118.09 18.76Q116.73 18.32 114.90 18.32L114.90 18.32L109.89 18.32ZM130.95 13.17L159.23 13.17L159.23 18.65L148.45 18.65L148.45 49L141.78 49L141.78 18.65L130.95 18.65L130.95 13.17ZM197.83 31.09L197.83 31.09L197.83 31.09Q197.83 35.02 196.52 38.38L196.52 38.38L196.52 38.38Q195.20 41.74 192.83 44.19L192.83 44.19L192.83 44.19Q190.45 46.65 187.10 48.02L187.10 48.02L187.10 48.02Q183.76 49.40 179.69 49.40L179.69 49.40L179.69 49.40Q175.63 49.40 172.27 48.02L172.27 48.02L172.27 48.02Q168.91 46.65 166.52 44.19L166.52 44.19L166.52 44.19Q164.13 41.74 162.82 38.38L162.82 38.38L162.82 38.38Q161.51 35.02 161.51 31.09L161.51 31.09L161.51 31.09Q161.51 27.15 162.82 23.79L162.82 23.79L162.82 23.79Q164.13 20.43 166.52 17.98L166.52 17.98L166.52 17.98Q168.91 15.52 172.27 14.15L172.27 14.15L172.27 14.15Q175.63 12.77 179.69 12.77L179.69 12.77L179.69 12.77Q183.76 12.77 187.10 14.16L187.10 14.16L187.10 14.16Q190.45 15.55 192.83 17.99L192.83 17.99L192.83 17.99Q195.20 20.43 196.52 23.79L196.52 23.79L196.52 23.79Q197.83 27.15 197.83 31.09ZM190.99 31.09L190.99 31.09L190.99 31.09Q190.99 28.14 190.21 25.79L190.21 25.79L190.21 25.79Q189.43 23.45 187.97 21.82L187.97 21.82L187.97 21.82Q186.51 20.18 184.41 19.32L184.41 19.32L184.41 19.32Q182.32 18.45 179.69 18.45L179.69 18.45L179.69 18.45Q177.07 18.45 174.96 19.32L174.96 19.32L174.96 19.32Q172.85 20.18 171.38 21.82L171.38 21.82L171.38 21.82Q169.91 23.45 169.11 25.79L169.11 25.79L169.11 25.79Q168.32 28.14 168.32 31.09L168.32 31.09L168.32 31.09Q168.32 34.03 169.11 36.38L169.11 36.38L169.11 36.38Q169.91 38.72 171.38 40.34L171.38 40.34L171.38 40.34Q172.85 41.96 174.96 42.83L174.96 42.83L174.96 42.83Q177.07 43.70 179.69 43.70L179.69 43.70L179.69 43.70Q182.32 43.70 184.41 42.83L184.41 42.83L184.41 42.83Q186.51 41.96 187.97 40.34L187.97 40.34L187.97 40.34Q189.43 38.72 190.21 36.38L190.21 36.38L190.21 36.38Q190.99 34.03 190.99 31.09ZM223.92 16.54L222.29 19.69L222.29 19.69Q222.02 20.23 221.66 20.46L221.66 20.46L221.66 20.46Q221.30 20.68 220.80 20.68L220.80 20.68L220.80 20.68Q220.31 20.68 219.69 20.29L219.69 20.29L219.69 20.29Q219.07 19.91 218.22 19.44L218.22 19.44L218.22 19.44Q217.38 18.97 216.25 18.58L216.25 18.58L216.25 18.58Q215.13 18.20 213.59 18.20L213.59 18.20L213.59 18.20Q212.20 18.20 211.17 18.53L211.17 18.53L211.17 18.53Q210.15 18.87 209.44 19.46L209.44 19.46L209.44 19.46Q208.73 20.06 208.39 20.89L208.39 20.89L208.39 20.89Q208.04 21.72 208.04 22.71L208.04 22.71L208.04 22.71Q208.04 23.97 208.75 24.82L208.75 24.82L208.75 24.82Q209.45 25.66 210.62 26.25L210.62 26.25L210.62 26.25Q211.78 26.85 213.27 27.32L213.27 27.32L213.27 27.32Q214.76 27.79 216.30 28.32L216.30 28.32L216.30 28.32Q217.85 28.86 219.34 29.56L219.34 29.56L219.34 29.56Q220.83 30.27 221.99 31.35L221.99 31.35L221.99 31.35Q223.15 32.42 223.86 33.98L223.86 33.98L223.86 33.98Q224.57 35.55 224.57 37.78L224.57 37.78L224.57 37.78Q224.57 40.20 223.74 42.32L223.74 42.32L223.74 42.32Q222.91 44.44 221.31 46.01L221.31 46.01L221.31 46.01Q219.71 47.59 217.41 48.49L217.41 48.49L217.41 48.49Q215.10 49.40 212.13 49.40L212.13 49.40L212.13 49.40Q210.42 49.40 208.76 49.06L208.76 49.06L208.76 49.06Q207.10 48.73 205.57 48.11L205.57 48.11L205.57 48.11Q204.05 47.49 202.73 46.62L202.73 46.62L202.73 46.62Q201.40 45.75 200.36 44.69L200.36 44.69L202.29 41.49L202.29 41.49Q202.56 41.15 202.95 40.91L202.95 40.91L202.95 40.91Q203.33 40.67 203.80 40.67L203.80 40.67L203.80 40.67Q204.42 40.67 205.14 41.18L205.14 41.18L205.14 41.18Q205.86 41.69 206.84 42.31L206.84 42.31L206.84 42.31Q207.82 42.93 209.14 43.44L209.14 43.44L209.14 43.44Q210.47 43.95 212.33 43.95L212.33 43.95L212.33 43.95Q215.18 43.95 216.74 42.59L216.74 42.59L216.74 42.59Q218.30 41.24 218.30 38.72L218.30 38.72L218.30 38.72Q218.30 37.30 217.59 36.41L217.59 36.41L217.59 36.41Q216.89 35.52 215.72 34.91L215.72 34.91L215.72 34.91Q214.56 34.31 213.07 33.89L213.07 33.89L213.07 33.89Q211.58 33.46 210.05 32.97L210.05 32.97L210.05 32.97Q208.51 32.47 207.02 31.78L207.02 31.78L207.02 31.78Q205.54 31.09 204.37 29.97L204.37 29.97L204.37 29.97Q203.21 28.86 202.50 27.18L202.50 27.18L202.50 27.18Q201.80 25.51 201.80 23.06L201.80 23.06L201.80 23.06Q201.80 21.10 202.58 19.24L202.58 19.24L202.58 19.24Q203.36 17.38 204.86 15.95L204.86 15.95L204.86 15.95Q206.36 14.51 208.54 13.64L208.54 13.64L208.54 13.64Q210.72 12.77 213.52 12.77L213.52 12.77L213.52 12.77Q216.69 12.77 219.36 13.77L219.36 13.77L219.36 13.77Q222.04 14.76 223.92 16.54L223.92 16.54ZM264.04 31.09L264.04 31.09L264.04 31.09Q264.04 35.02 262.73 38.38L262.73 38.38L262.73 38.38Q261.41 41.74 259.03 44.19L259.03 44.19L259.03 44.19Q256.66 46.65 253.31 48.02L253.31 48.02L253.31 48.02Q249.97 49.40 245.90 49.40L245.90 49.40L245.90 49.40Q241.84 49.40 238.48 48.02L238.48 48.02L238.48 48.02Q235.12 46.65 232.73 44.19L232.73 44.19L232.73 44.19Q230.34 41.74 229.03 38.38L229.03 38.38L229.03 38.38Q227.71 35.02 227.71 31.09L227.71 31.09L227.71 31.09Q227.71 27.15 229.03 23.79L229.03 23.79L229.03 23.79Q230.34 20.43 232.73 17.98L232.73 17.98L232.73 17.98Q235.12 15.52 238.48 14.15L238.48 14.15L238.48 14.15Q241.84 12.77 245.90 12.77L245.90 12.77L245.90 12.77Q249.97 12.77 253.31 14.16L253.31 14.16L253.31 14.16Q256.66 15.55 259.03 17.99L259.03 17.99L259.03 17.99Q261.41 20.43 262.73 23.79L262.73 23.79L262.73 23.79Q264.04 27.15 264.04 31.09ZM257.20 31.09L257.20 31.09L257.20 31.09Q257.20 28.14 256.42 25.79L256.42 25.79L256.42 25.79Q255.64 23.45 254.18 21.82L254.18 21.82L254.18 21.82Q252.72 20.18 250.62 19.32L250.62 19.32L250.62 19.32Q248.53 18.45 245.90 18.45L245.90 18.45L245.90 18.45Q243.28 18.45 241.17 19.32L241.17 19.32L241.17 19.32Q239.06 20.18 237.59 21.82L237.59 21.82L237.59 21.82Q236.11 23.45 235.32 25.79L235.32 25.79L235.32 25.79Q234.53 28.14 234.53 31.09L234.53 31.09L234.53 31.09Q234.53 34.03 235.32 36.38L235.32 36.38L235.32 36.38Q236.11 38.72 237.59 40.34L237.59 40.34L237.59 40.34Q239.06 41.96 241.17 42.83L241.17 42.83L241.17 42.83Q243.28 43.70 245.90 43.70L245.90 43.70L245.90 43.70Q248.53 43.70 250.62 42.83L250.62 42.83L250.62 42.83Q252.72 41.96 254.18 40.34L254.18 40.34L254.18 40.34Q255.64 38.72 256.42 36.38L256.42 36.38L256.42 36.38Q257.20 34.03 257.20 31.09Z" fill="#535353"/></g><g transform="translate(161,107)translate(89,100.5)rotate(0)translate(-89,-100.5) scale(0.8828620602429359,0.8828620602429359)" opacity="1"><defs class="defs"/><path fill="#8661c5" d="M94.728,23.006c26.479,2.571,52.216,15.896,65.988,32.388c6.552,7.845,18.572,8.067,25.801,0.842l15.1-15.1&#10;&#9;C180.684,16.019,149.187,0,114.012,0C74.309,0,39.3,20.411,18.875,51.279C44.917,23.736,75.658,21.157,94.728,23.006z" class="color c1" stroke="none" stroke-width="1px"/><path fill="#3b2e58" d="M48.156,183.756c29.296,14.505,60.719,11.708,89.686-7.133c-7.969,3.046-16.666,4.617-25.754,4.359&#10;&#9;c-34.305-0.97-62.807-28.451-64.938-62.703c-2.422-38.866,28.508-71.263,66.863-71.263c19.901,0,37.776,8.744,50.056,22.57&#10;&#9;c-7.92-18.325-36.068-38.629-69.795-41.9c-15.314-1.486-38.567,0.06-60.396,16.513C12.627,60.212,0.436,85.578,0.013,112.182&#10;&#9;C0.005,112.792,0,113.4,0,114.012c0,0.091,0,0.18,0,0.269c0.041,17.655,6.896,34.732,18.985,47.597&#10;&#9;C27.331,170.765,37.217,178.337,48.156,183.756z" class="color c2" stroke="none" stroke-width="1px"/><path fill="#8661c5" d="M157.875,167.056c-22.373,20.251-46.903,30.671-71.39,30.674c-13.61,0-27.206-3.221-40.416-9.76&#10;&#9;c-14.779-7.319-27.604-18.124-37.543-30.751c17.061,41.501,57.905,70.807,105.485,70.807c35.175,0,66.672-16.02,87.604-41.137&#10;&#9;l-19.304-19.304C175.621,160.896,164.888,160.707,157.875,167.056z" class="color c1" stroke="none" stroke-width="1px"/></g></svg>